<svg width="30" height="30" viewBox="0 0 30 30" fill="none" xmlns="http://www.w3.org/2000/svg">
<path d="M26.6076 9.59993C26.4989 9.44283 26.3538 9.31443 26.1846 9.22572C26.0154 9.13701 25.8272 9.09063 25.6362 9.09057H9.48428L8.12046 5.81693C7.94216 5.38546 7.63948 5.01681 7.25097 4.75794C6.86245 4.49907 6.40568 4.36169 5.93882 4.3633H3.18164V6.72693H5.93882L11.5454 20.1819C11.6352 20.3972 11.7867 20.5811 11.9808 20.7104C12.1749 20.8398 12.4029 20.9088 12.6362 20.9087H22.0907C22.5835 20.9087 23.0244 20.6027 23.1981 20.1429L26.7435 10.6884C26.8106 10.5095 26.8332 10.317 26.8095 10.1274C26.7859 9.93787 26.7166 9.75687 26.6076 9.59993Z" fill="#564096"/>
<path d="M13.2278 25.6363C14.2069 25.6363 15.0005 24.8426 15.0005 23.8635C15.0005 22.8845 14.2069 22.0908 13.2278 22.0908C12.2488 22.0908 11.4551 22.8845 11.4551 23.8635C11.4551 24.8426 12.2488 25.6363 13.2278 25.6363Z" fill="#564096"/>
<path d="M21.4993 25.6363C22.4783 25.6363 23.272 24.8426 23.272 23.8635C23.272 22.8845 22.4783 22.0908 21.4993 22.0908C20.5202 22.0908 19.7266 22.8845 19.7266 23.8635C19.7266 24.8426 20.5202 25.6363 21.4993 25.6363Z" fill="#564096"/>
</svg>
