<svg width="20" height="20" viewBox="0 0 20 20" fill="none" xmlns="http://www.w3.org/2000/svg">
<path d="M3.3085 11.1693V11.1733C3.28603 11.258 3.24709 11.3375 3.19389 11.4072C3.14069 11.4768 3.07429 11.5353 2.99847 11.5793C2.92266 11.6233 2.83891 11.6519 2.75203 11.6635C2.66515 11.6751 2.57684 11.6694 2.49215 11.6468C1.91723 11.4948 2.01861 10.8318 2.01861 10.8318L2.04262 10.7491C2.04262 10.7491 2.0773 10.6371 2.10531 10.5557C2.44762 9.59595 2.95154 8.7018 3.59528 7.91191C4.7918 6.45262 6.80466 5 9.99936 5C13.1941 5 15.2069 6.45262 16.4048 7.91191C17.0485 8.7018 17.5524 9.59595 17.8947 10.5557C17.9235 10.6382 17.9501 10.7214 17.9748 10.8052L17.9788 10.8225V10.8278L17.9801 10.8305C18.0224 11.0003 17.9963 11.1798 17.9075 11.3306C17.8186 11.4813 17.6741 11.591 17.5051 11.6362C17.336 11.6813 17.156 11.6582 17.0039 11.5719C16.8517 11.4856 16.7395 11.3429 16.6916 11.1746L16.6902 11.1693L16.6796 11.136L16.6329 10.9906C16.3421 10.1803 15.9159 9.4252 15.3723 8.75761C14.3826 7.55043 12.7272 6.3339 9.99936 6.3339C7.27153 6.3339 5.61748 7.55043 4.62639 8.75761C4.08283 9.4252 3.65659 10.1803 3.36585 10.9906L3.31917 11.136L3.3085 11.1693ZM9.99936 9.00171C9.11493 9.00171 8.26672 9.35305 7.64133 9.97844C7.01594 10.6038 6.6646 11.452 6.6646 12.3365C6.6646 13.2209 7.01594 14.0691 7.64133 14.6945C8.26672 15.3199 9.11493 15.6712 9.99936 15.6712C10.8838 15.6712 11.732 15.3199 12.3574 14.6945C12.9828 14.0691 13.3341 13.2209 13.3341 12.3365C13.3341 11.452 12.9828 10.6038 12.3574 9.97844C11.732 9.35305 10.8838 9.00171 9.99936 9.00171ZM7.9985 12.3365C7.9985 11.8058 8.20931 11.2969 8.58454 10.9217C8.95977 10.5464 9.4687 10.3356 9.99936 10.3356C10.53 10.3356 11.0389 10.5464 11.4142 10.9217C11.7894 11.2969 12.0002 11.8058 12.0002 12.3365C12.0002 12.8671 11.7894 13.3761 11.4142 13.7513C11.0389 14.1265 10.53 14.3373 9.99936 14.3373C9.4687 14.3373 8.95977 14.1265 8.58454 13.7513C8.20931 13.3761 7.9985 12.8671 7.9985 12.3365Z" fill="black" fill-opacity="0.4"/>
</svg>
