<svg width="20" height="20" viewBox="0 0 20 20" fill="none" xmlns="http://www.w3.org/2000/svg">
<path d="M2.54166 7.75809C2.50624 7.6523 2.49241 7.54048 2.50101 7.42925C2.50961 7.31802 2.54046 7.20965 2.59172 7.11057C2.64299 7.01148 2.71362 6.9237 2.79945 6.85242C2.88527 6.78114 2.98453 6.72782 3.09134 6.69562C3.19815 6.66342 3.31035 6.653 3.42126 6.66496C3.53218 6.67693 3.63957 6.71105 3.73705 6.76529C3.83454 6.81953 3.92014 6.8928 3.98878 6.98074C4.05743 7.06869 4.10771 7.16952 4.13666 7.27726C5.87499 13.0989 14.1217 13.0998 15.8617 7.28059C15.8928 7.17564 15.9444 7.07786 16.0134 6.99284C16.0824 6.90782 16.1674 6.83721 16.2637 6.78506C16.3599 6.7329 16.4655 6.70022 16.5744 6.68887C16.6833 6.67752 16.7934 6.68773 16.8983 6.71892C17.0033 6.75011 17.1011 6.80167 17.1861 6.87064C17.2711 6.93962 17.3417 7.02467 17.3939 7.12093C17.446 7.2172 17.4787 7.32279 17.49 7.43168C17.5014 7.54058 17.4912 7.65064 17.46 7.75559C17.157 8.79833 16.6427 9.76758 15.9492 10.6031L17.0117 11.6664C17.1635 11.8236 17.2475 12.0341 17.2456 12.2526C17.2437 12.4711 17.156 12.6801 17.0015 12.8346C16.847 12.9891 16.638 13.0768 16.4195 13.0787C16.201 13.0806 15.9905 12.9966 15.8333 12.8448L14.7408 11.7523C14.1513 12.197 13.5 12.5533 12.8075 12.8098L13.105 13.9223C13.1367 14.029 13.1468 14.141 13.1345 14.2516C13.1222 14.3623 13.0879 14.4693 13.0336 14.5665C12.9793 14.6637 12.906 14.749 12.8182 14.8174C12.7303 14.8858 12.6297 14.9359 12.5221 14.9647C12.4146 14.9935 12.3024 15.0005 12.1921 14.9853C12.0818 14.9701 11.9757 14.9329 11.8801 14.8759C11.7844 14.819 11.7011 14.7435 11.6351 14.6538C11.5691 14.5642 11.5218 14.4622 11.4958 14.3539L11.1925 13.2231C10.4033 13.3398 9.59666 13.3398 8.80749 13.2231L8.50416 14.3539C8.47823 14.4622 8.43087 14.5642 8.36487 14.6538C8.29887 14.7435 8.21558 14.819 8.11991 14.8759C8.02424 14.9329 7.91814 14.9701 7.80786 14.9853C7.69758 15.0005 7.58536 14.9935 7.47784 14.9647C7.37031 14.9359 7.26965 14.8858 7.18181 14.8174C7.09396 14.749 7.02071 14.6637 6.96638 14.5665C6.91205 14.4693 6.87775 14.3623 6.86548 14.2516C6.85322 14.141 6.86326 14.029 6.89499 13.9223L7.19249 12.8098C6.49995 12.553 5.84862 12.1965 5.25916 11.7514L4.16749 12.8448C4.01124 13.0012 3.79922 13.0892 3.57808 13.0894C3.35694 13.0895 3.1448 13.0018 2.98833 12.8456C2.83185 12.6893 2.74385 12.4773 2.7437 12.2562C2.74354 12.035 2.83124 11.8229 2.98749 11.6664L4.04999 10.6039C3.39666 9.82392 2.87499 8.87559 2.53999 7.75892L2.54166 7.75809Z" fill="black" fill-opacity="0.5"/>
</svg>
