<svg width="67" height="66" viewBox="0 0 67 66" fill="none" xmlns="http://www.w3.org/2000/svg">
<g filter="url(#filter0_d_560_1017)">
<rect x="12.5" y="8" width="42" height="42" rx="21" fill="white" shape-rendering="crispEdges"/>
<path fill-rule="evenodd" clip-rule="evenodd" d="M33.5 19C30.784 19 30.444 19.012 29.377 19.06C28.313 19.109 27.586 19.278 26.95 19.525C26.2825 19.7758 25.6777 20.1693 25.178 20.678C24.6693 21.1777 24.2758 21.7825 24.025 22.45C23.778 23.086 23.609 23.813 23.56 24.877C23.511 25.944 23.5 26.284 23.5 29C23.5 31.716 23.511 32.056 23.56 33.123C23.609 34.187 23.778 34.914 24.025 35.55C24.2758 36.2175 24.6693 36.8223 25.178 37.322C25.6777 37.8307 26.2825 38.2242 26.95 38.475C27.586 38.722 28.313 38.891 29.377 38.94C30.444 38.988 30.784 39 33.5 39C36.216 39 36.556 38.988 37.623 38.94C38.687 38.891 39.414 38.722 40.05 38.475C40.7175 38.2242 41.3223 37.8307 41.822 37.322C42.3307 36.8223 42.7242 36.2175 42.975 35.55C43.222 34.914 43.391 34.187 43.44 33.123C43.488 32.056 43.5 31.716 43.5 29C43.5 26.284 43.488 25.944 43.44 24.877C43.391 23.813 43.222 23.086 42.975 22.45C42.7242 21.7825 42.3307 21.1777 41.822 20.678C41.3223 20.1693 40.7175 19.7758 40.05 19.525C39.414 19.278 38.687 19.109 37.623 19.06C36.556 19.012 36.216 19 33.5 19ZM33.5 20.802C36.17 20.802 36.486 20.812 37.54 20.86C38.516 20.905 39.045 21.067 39.398 21.204C39.864 21.386 40.198 21.603 40.548 21.952C40.898 22.302 41.114 22.636 41.296 23.102C41.432 23.455 41.596 23.984 41.64 24.959C41.688 26.014 41.698 26.329 41.698 29C41.698 31.67 41.688 31.986 41.64 33.04C41.595 34.016 41.432 34.545 41.296 34.898C41.1357 35.3324 40.8801 35.7253 40.548 36.048C40.198 36.398 39.864 36.614 39.398 36.796C39.045 36.932 38.516 37.096 37.541 37.14C36.487 37.188 36.171 37.198 33.5 37.198C30.83 37.198 30.513 37.188 29.46 37.14C28.484 37.095 27.955 36.932 27.602 36.796C27.1676 36.6357 26.7747 36.3801 26.452 36.048C26.1199 35.7253 25.8643 35.3324 25.704 34.898C25.567 34.545 25.404 34.016 25.36 33.041C25.312 31.986 25.302 31.671 25.302 29C25.302 26.33 25.312 26.014 25.36 24.96C25.405 23.984 25.567 23.455 25.704 23.102C25.886 22.636 26.103 22.302 26.452 21.952C26.802 21.602 27.136 21.386 27.602 21.204C27.955 21.067 28.484 20.904 29.459 20.86C30.514 20.812 30.829 20.802 33.5 20.802ZM33.5 32.333C32.616 32.333 31.7683 31.9818 31.1432 31.3568C30.5182 30.7317 30.167 29.884 30.167 29C30.167 28.116 30.5182 27.2683 31.1432 26.6432C31.7683 26.0182 32.616 25.667 33.5 25.667C34.384 25.667 35.2317 26.0182 35.8568 26.6432C36.4818 27.2683 36.833 28.116 36.833 29C36.833 29.884 36.4818 30.7317 35.8568 31.3568C35.2317 31.9818 34.384 32.333 33.5 32.333ZM33.5 23.865C32.8257 23.865 32.1579 23.9978 31.5349 24.2559C30.9119 24.5139 30.3458 24.8922 29.869 25.369C29.3922 25.8458 29.0139 26.4119 28.7559 27.0349C28.4978 27.6579 28.365 28.3257 28.365 29C28.365 29.6743 28.4978 30.3421 28.7559 30.9651C29.0139 31.5881 29.3922 32.1542 29.869 32.631C30.3458 33.1078 30.9119 33.4861 31.5349 33.7441C32.1579 34.0022 32.8257 34.135 33.5 34.135C34.8619 34.135 36.168 33.594 37.131 32.631C38.094 31.668 38.635 30.3619 38.635 29C38.635 27.6381 38.094 26.332 37.131 25.369C36.168 24.406 34.8619 23.865 33.5 23.865ZM40.038 23.662C40.038 23.8196 40.007 23.9756 39.9467 24.1212C39.8863 24.2668 39.798 24.3991 39.6865 24.5105C39.5751 24.622 39.4428 24.7104 39.2972 24.7707C39.1516 24.831 38.9956 24.862 38.838 24.862C38.6804 24.862 38.5244 24.831 38.3788 24.7707C38.2332 24.7104 38.1009 24.622 37.9895 24.5105C37.878 24.3991 37.7897 24.2668 37.7293 24.1212C37.669 23.9756 37.638 23.8196 37.638 23.662C37.638 23.3437 37.7644 23.0385 37.9895 22.8135C38.2145 22.5884 38.5197 22.462 38.838 22.462C39.1563 22.462 39.4615 22.5884 39.6865 22.8135C39.9116 23.0385 40.038 23.3437 40.038 23.662Z" fill="#F48120"/>
</g>
<defs>
<filter id="filter0_d_560_1017" x="0.5" y="0" width="66" height="66" filterUnits="userSpaceOnUse" color-interpolation-filters="sRGB">
<feFlood flood-opacity="0" result="BackgroundImageFix"/>
<feColorMatrix in="SourceAlpha" type="matrix" values="0 0 0 0 0 0 0 0 0 0 0 0 0 0 0 0 0 0 127 0" result="hardAlpha"/>
<feOffset dy="4"/>
<feGaussianBlur stdDeviation="6"/>
<feComposite in2="hardAlpha" operator="out"/>
<feColorMatrix type="matrix" values="0 0 0 0 0 0 0 0 0 0 0 0 0 0 0 0 0 0 0.08 0"/>
<feBlend mode="normal" in2="BackgroundImageFix" result="effect1_dropShadow_560_1017"/>
<feBlend mode="normal" in="SourceGraphic" in2="effect1_dropShadow_560_1017" result="shape"/>
</filter>
</defs>
</svg>
