<svg width="67" height="66" viewBox="0 0 67 66" fill="none" xmlns="http://www.w3.org/2000/svg">
<g filter="url(#filter0_d_560_1026)">
<rect x="12.5" y="8" width="42" height="42" rx="21" fill="white" shape-rendering="crispEdges"/>
<path d="M40.5 20C41.0304 20 41.5391 20.2107 41.9142 20.5858C42.2893 20.9609 42.5 21.4696 42.5 22V36C42.5 36.5304 42.2893 37.0391 41.9142 37.4142C41.5391 37.7893 41.0304 38 40.5 38H26.5C25.9696 38 25.4609 37.7893 25.0858 37.4142C24.7107 37.0391 24.5 36.5304 24.5 36V22C24.5 21.4696 24.7107 20.9609 25.0858 20.5858C25.4609 20.2107 25.9696 20 26.5 20H40.5ZM40 35.5V30.2C40 29.3354 39.6565 28.5062 39.0452 27.8948C38.4338 27.2835 37.6046 26.94 36.74 26.94C35.89 26.94 34.9 27.46 34.42 28.24V27.13H31.63V35.5H34.42V30.57C34.42 29.8 35.04 29.17 35.81 29.17C36.1813 29.17 36.5374 29.3175 36.7999 29.5801C37.0625 29.8426 37.21 30.1987 37.21 30.57V35.5H40ZM28.38 25.56C28.8256 25.56 29.2529 25.383 29.5679 25.0679C29.883 24.7529 30.06 24.3256 30.06 23.88C30.06 22.95 29.31 22.19 28.38 22.19C27.9318 22.19 27.5019 22.3681 27.185 22.685C26.8681 23.0019 26.69 23.4318 26.69 23.88C26.69 24.81 27.45 25.56 28.38 25.56ZM29.77 35.5V27.13H27V35.5H29.77Z" fill="#F48120"/>
</g>
<defs>
<filter id="filter0_d_560_1026" x="0.5" y="0" width="66" height="66" filterUnits="userSpaceOnUse" color-interpolation-filters="sRGB">
<feFlood flood-opacity="0" result="BackgroundImageFix"/>
<feColorMatrix in="SourceAlpha" type="matrix" values="0 0 0 0 0 0 0 0 0 0 0 0 0 0 0 0 0 0 127 0" result="hardAlpha"/>
<feOffset dy="4"/>
<feGaussianBlur stdDeviation="6"/>
<feComposite in2="hardAlpha" operator="out"/>
<feColorMatrix type="matrix" values="0 0 0 0 0 0 0 0 0 0 0 0 0 0 0 0 0 0 0.08 0"/>
<feBlend mode="normal" in2="BackgroundImageFix" result="effect1_dropShadow_560_1026"/>
<feBlend mode="normal" in="SourceGraphic" in2="effect1_dropShadow_560_1026" result="shape"/>
</filter>
</defs>
</svg>
