<svg width="80" height="80" viewBox="0 0 80 80" fill="none" xmlns="http://www.w3.org/2000/svg">
<path d="M40.0007 23.3333C37.5473 23.3333 35.624 25.4966 35.854 27.9999L37.5007 41.8333C37.5506 42.4642 37.8349 43.0536 38.2975 43.4854C38.7602 43.9172 39.3678 44.1602 40.0007 44.1666C40.6335 44.1602 41.2411 43.9172 41.7038 43.4854C42.1664 43.0536 42.4507 42.4642 42.5007 41.8333L44.1473 27.9999C44.3807 25.4999 42.454 23.3333 40.0007 23.3333ZM40.0007 56.6666C41.1057 56.6666 42.1655 56.2276 42.9469 55.4462C43.7283 54.6648 44.1673 53.605 44.1673 52.4999C44.1673 51.3948 43.7283 50.335 42.9469 49.5536C42.1655 48.7722 41.1057 48.3333 40.0007 48.3333C38.8956 48.3333 37.8358 48.7722 37.0544 49.5536C36.273 50.335 35.834 51.3948 35.834 52.4999C35.834 53.605 36.273 54.6648 37.0544 55.4462C37.8358 56.2276 38.8956 56.6666 40.0007 56.6666Z" fill="#564096"/>
<path d="M40.0007 15.8333C36.827 15.8333 33.6845 16.4583 30.7525 17.6728C27.8204 18.8873 25.1563 20.6674 22.9122 22.9115C20.6682 25.1556 18.8881 27.8197 17.6736 30.7517C16.4591 33.6838 15.834 36.8263 15.834 39.9999C15.834 43.1735 16.4591 46.3161 17.6736 49.2481C18.8881 52.1801 20.6682 54.8442 22.9122 57.0883C25.1563 59.3324 27.8204 61.1125 30.7525 62.327C33.6845 63.5415 36.827 64.1666 40.0007 64.1666C46.41 64.1666 52.5569 61.6205 57.0891 57.0883C61.6212 52.5562 64.1673 46.4093 64.1673 39.9999C64.1673 33.5905 61.6212 27.4436 57.0891 22.9115C52.5569 18.3794 46.41 15.8333 40.0007 15.8333ZM10.834 39.9999C10.834 32.2644 13.9069 24.8458 19.3767 19.376C24.8465 13.9062 32.2652 10.8333 40.0007 10.8333C47.7361 10.8333 55.1548 13.9062 60.6246 19.376C66.0944 24.8458 69.1673 32.2644 69.1673 39.9999C69.1673 47.7354 66.0944 55.1541 60.6246 60.6239C55.1548 66.0937 47.7361 69.1666 40.0007 69.1666C32.2652 69.1666 24.8465 66.0937 19.3767 60.6239C13.9069 55.1541 10.834 47.7354 10.834 39.9999Z" fill="#564096"/>
</svg>
