<svg width="67" height="66" viewBox="0 0 67 66" fill="none" xmlns="http://www.w3.org/2000/svg">
<g filter="url(#filter0_d_560_1020)">
<rect x="12.5" y="8" width="42" height="42" rx="21" fill="white" shape-rendering="crispEdges"/>
<g clip-path="url(#clip0_560_1020)">
<path d="M44.04 23.42C43.9151 22.9523 43.6698 22.5255 43.3285 22.1821C42.9872 21.8387 42.5619 21.5908 42.095 21.463C40.38 21 33.5 21 33.5 21C33.5 21 26.62 21 24.905 21.463C24.4381 21.5908 24.0128 21.8387 23.6715 22.1821C23.3302 22.5255 23.0849 22.9523 22.96 23.42C22.5 25.148 22.5 28.75 22.5 28.75C22.5 28.75 22.5 32.352 22.96 34.08C23.0848 34.5479 23.33 34.9749 23.6713 35.3185C24.0126 35.662 24.4379 35.9101 24.905 36.038C26.621 36.5 33.5 36.5 33.5 36.5C33.5 36.5 40.38 36.5 42.095 36.038C42.5621 35.9101 42.9874 35.662 43.3287 35.3185C43.67 34.9749 43.9152 34.5479 44.04 34.08C44.5 32.354 44.5 28.75 44.5 28.75C44.5 28.75 44.5 25.148 44.04 23.42ZM31.25 32.021V25.48L37 28.751L31.25 32.021Z" stroke="#F48120" stroke-width="1.5" stroke-miterlimit="10" stroke-linejoin="round"/>
</g>
</g>
<defs>
<filter id="filter0_d_560_1020" x="0.5" y="0" width="66" height="66" filterUnits="userSpaceOnUse" color-interpolation-filters="sRGB">
<feFlood flood-opacity="0" result="BackgroundImageFix"/>
<feColorMatrix in="SourceAlpha" type="matrix" values="0 0 0 0 0 0 0 0 0 0 0 0 0 0 0 0 0 0 127 0" result="hardAlpha"/>
<feOffset dy="4"/>
<feGaussianBlur stdDeviation="6"/>
<feComposite in2="hardAlpha" operator="out"/>
<feColorMatrix type="matrix" values="0 0 0 0 0 0 0 0 0 0 0 0 0 0 0 0 0 0 0.08 0"/>
<feBlend mode="normal" in2="BackgroundImageFix" result="effect1_dropShadow_560_1020"/>
<feBlend mode="normal" in="SourceGraphic" in2="effect1_dropShadow_560_1020" result="shape"/>
</filter>
<clipPath id="clip0_560_1020">
<rect width="24" height="24" fill="white" transform="translate(21.5 17)"/>
</clipPath>
</defs>
</svg>
